<mxfile host="app.diagrams.net" modified="2023-12-17T13:41:22.237Z" agent="Mozilla/5.0 (X11; Ubuntu; Linux x86_64; rv:120.0) Gecko/20100101 Firefox/120.0" etag="EhCsDzUwoZmrW0tdw5Zw" version="22.1.11" type="device">
  <diagram name="Страница — 1" id="hnYaMnzZbCKfAS2Hph6G">
    <mxGraphModel dx="649" dy="379" grid="1" gridSize="10" guides="1" tooltips="1" connect="1" arrows="1" fold="1" page="1" pageScale="1" pageWidth="827" pageHeight="1169" math="0" shadow="0">
      <root>
        <mxCell id="0" />
        <mxCell id="1" parent="0" />
        <mxCell id="jyPg0gOMG7-683NXhz3Q-1" value="API Gateway" style="rounded=1;whiteSpace=wrap;html=1;fillColor=#e1d5e7;strokeColor=#9673a6;" vertex="1" parent="1">
          <mxGeometry x="220" y="370" width="120" height="140" as="geometry" />
        </mxCell>
        <mxCell id="jyPg0gOMG7-683NXhz3Q-8" style="edgeStyle=orthogonalEdgeStyle;rounded=0;orthogonalLoop=1;jettySize=auto;html=1;exitX=0.5;exitY=0;exitDx=0;exitDy=0;entryX=0.5;entryY=1;entryDx=0;entryDy=0;" edge="1" parent="1" source="jyPg0gOMG7-683NXhz3Q-2" target="jyPg0gOMG7-683NXhz3Q-4">
          <mxGeometry relative="1" as="geometry" />
        </mxCell>
        <mxCell id="jyPg0gOMG7-683NXhz3Q-9" style="edgeStyle=orthogonalEdgeStyle;rounded=0;orthogonalLoop=1;jettySize=auto;html=1;startArrow=classic;startFill=1;" edge="1" parent="1" source="jyPg0gOMG7-683NXhz3Q-2" target="jyPg0gOMG7-683NXhz3Q-5">
          <mxGeometry relative="1" as="geometry">
            <Array as="points">
              <mxPoint x="540" y="420" />
              <mxPoint x="540" y="540" />
            </Array>
          </mxGeometry>
        </mxCell>
        <mxCell id="jyPg0gOMG7-683NXhz3Q-2" value="Users service" style="rounded=1;whiteSpace=wrap;html=1;fillColor=#d5e8d4;strokeColor=#82b366;" vertex="1" parent="1">
          <mxGeometry x="400" y="370" width="120" height="60" as="geometry" />
        </mxCell>
        <mxCell id="jyPg0gOMG7-683NXhz3Q-10" style="edgeStyle=orthogonalEdgeStyle;rounded=0;orthogonalLoop=1;jettySize=auto;html=1;exitX=0.5;exitY=1;exitDx=0;exitDy=0;entryX=0.5;entryY=0;entryDx=0;entryDy=0;" edge="1" parent="1" source="jyPg0gOMG7-683NXhz3Q-3" target="jyPg0gOMG7-683NXhz3Q-5">
          <mxGeometry relative="1" as="geometry" />
        </mxCell>
        <mxCell id="jyPg0gOMG7-683NXhz3Q-11" style="edgeStyle=orthogonalEdgeStyle;rounded=0;orthogonalLoop=1;jettySize=auto;html=1;exitX=0.5;exitY=0;exitDx=0;exitDy=0;entryX=0.5;entryY=1;entryDx=0;entryDy=0;" edge="1" parent="1" source="jyPg0gOMG7-683NXhz3Q-3" target="jyPg0gOMG7-683NXhz3Q-2">
          <mxGeometry relative="1" as="geometry" />
        </mxCell>
        <mxCell id="jyPg0gOMG7-683NXhz3Q-3" value="Posts service" style="rounded=1;whiteSpace=wrap;html=1;fillColor=#d5e8d4;strokeColor=#82b366;" vertex="1" parent="1">
          <mxGeometry x="400" y="450" width="120" height="60" as="geometry" />
        </mxCell>
        <mxCell id="jyPg0gOMG7-683NXhz3Q-34" style="edgeStyle=orthogonalEdgeStyle;rounded=0;orthogonalLoop=1;jettySize=auto;html=1;exitX=1;exitY=0.5;exitDx=0;exitDy=0;entryX=0;entryY=0.5;entryDx=0;entryDy=0;startArrow=classic;startFill=1;" edge="1" parent="1" source="jyPg0gOMG7-683NXhz3Q-4" target="jyPg0gOMG7-683NXhz3Q-32">
          <mxGeometry relative="1" as="geometry" />
        </mxCell>
        <mxCell id="jyPg0gOMG7-683NXhz3Q-4" value="Mailer" style="rounded=1;whiteSpace=wrap;html=1;fillColor=#d5e8d4;strokeColor=#82b366;" vertex="1" parent="1">
          <mxGeometry x="400" y="290" width="120" height="60" as="geometry" />
        </mxCell>
        <mxCell id="jyPg0gOMG7-683NXhz3Q-5" value="Image storage" style="rounded=1;whiteSpace=wrap;html=1;fillColor=#d5e8d4;strokeColor=#82b366;" vertex="1" parent="1">
          <mxGeometry x="400" y="530" width="120" height="60" as="geometry" />
        </mxCell>
        <mxCell id="jyPg0gOMG7-683NXhz3Q-22" style="edgeStyle=orthogonalEdgeStyle;rounded=0;orthogonalLoop=1;jettySize=auto;html=1;exitX=1;exitY=0.25;exitDx=0;exitDy=0;entryX=0;entryY=0.588;entryDx=0;entryDy=0;entryPerimeter=0;startArrow=classic;startFill=1;" edge="1" parent="1" source="jyPg0gOMG7-683NXhz3Q-1" target="jyPg0gOMG7-683NXhz3Q-2">
          <mxGeometry relative="1" as="geometry" />
        </mxCell>
        <mxCell id="jyPg0gOMG7-683NXhz3Q-23" style="edgeStyle=orthogonalEdgeStyle;rounded=0;orthogonalLoop=1;jettySize=auto;html=1;exitX=1;exitY=0.75;exitDx=0;exitDy=0;entryX=-0.015;entryY=0.421;entryDx=0;entryDy=0;entryPerimeter=0;startArrow=classic;startFill=1;" edge="1" parent="1" source="jyPg0gOMG7-683NXhz3Q-1" target="jyPg0gOMG7-683NXhz3Q-3">
          <mxGeometry relative="1" as="geometry" />
        </mxCell>
        <mxCell id="jyPg0gOMG7-683NXhz3Q-25" style="edgeStyle=orthogonalEdgeStyle;rounded=0;orthogonalLoop=1;jettySize=auto;html=1;exitX=1;exitY=0.5;exitDx=0;exitDy=0;entryX=0;entryY=0.5;entryDx=0;entryDy=0;startArrow=classic;startFill=1;" edge="1" parent="1" source="jyPg0gOMG7-683NXhz3Q-24" target="jyPg0gOMG7-683NXhz3Q-1">
          <mxGeometry relative="1" as="geometry" />
        </mxCell>
        <mxCell id="jyPg0gOMG7-683NXhz3Q-24" value="Front-end" style="ellipse;whiteSpace=wrap;html=1;aspect=fixed;fillColor=#ffe6cc;strokeColor=#d79b00;" vertex="1" parent="1">
          <mxGeometry x="100" y="400" width="80" height="80" as="geometry" />
        </mxCell>
        <mxCell id="jyPg0gOMG7-683NXhz3Q-26" value="DB" style="shape=cylinder3;whiteSpace=wrap;html=1;boundedLbl=1;backgroundOutline=1;size=15;fillColor=#dae8fc;strokeColor=#6c8ebf;" vertex="1" parent="1">
          <mxGeometry x="610" y="420" width="60" height="80" as="geometry" />
        </mxCell>
        <mxCell id="jyPg0gOMG7-683NXhz3Q-27" style="edgeStyle=orthogonalEdgeStyle;rounded=0;orthogonalLoop=1;jettySize=auto;html=1;exitX=1;exitY=0.25;exitDx=0;exitDy=0;entryX=0.5;entryY=0;entryDx=0;entryDy=0;entryPerimeter=0;" edge="1" parent="1" source="jyPg0gOMG7-683NXhz3Q-2" target="jyPg0gOMG7-683NXhz3Q-26">
          <mxGeometry relative="1" as="geometry" />
        </mxCell>
        <mxCell id="jyPg0gOMG7-683NXhz3Q-28" style="edgeStyle=orthogonalEdgeStyle;rounded=0;orthogonalLoop=1;jettySize=auto;html=1;exitX=1;exitY=0.5;exitDx=0;exitDy=0;entryX=-0.039;entryY=0.751;entryDx=0;entryDy=0;entryPerimeter=0;" edge="1" parent="1" source="jyPg0gOMG7-683NXhz3Q-3" target="jyPg0gOMG7-683NXhz3Q-26">
          <mxGeometry relative="1" as="geometry" />
        </mxCell>
        <mxCell id="jyPg0gOMG7-683NXhz3Q-29" style="edgeStyle=orthogonalEdgeStyle;rounded=0;orthogonalLoop=1;jettySize=auto;html=1;exitX=1;exitY=0.75;exitDx=0;exitDy=0;entryX=0.5;entryY=1;entryDx=0;entryDy=0;entryPerimeter=0;" edge="1" parent="1" source="jyPg0gOMG7-683NXhz3Q-5" target="jyPg0gOMG7-683NXhz3Q-26">
          <mxGeometry relative="1" as="geometry" />
        </mxCell>
        <mxCell id="jyPg0gOMG7-683NXhz3Q-32" value="AMQP" style="ellipse;whiteSpace=wrap;html=1;aspect=fixed;fillColor=#fff2cc;strokeColor=#d6b656;" vertex="1" parent="1">
          <mxGeometry x="600" y="280" width="80" height="80" as="geometry" />
        </mxCell>
      </root>
    </mxGraphModel>
  </diagram>
</mxfile>
